<svg width="500" height="500" xmlns="http://www.w3.org/2000/svg" stroke="null">
 <g stroke="null">
  <title stroke="null">Layer 1</title>
  <text fill="#56aaff" stroke-width="0" x="96.51354" y="79.6617" id="svg_1" font-size="24" font-family="serif" text-anchor="start" xml:space="preserve" font-weight="bold" font-style="normal" transform="matrix(25.539 0 0 19.4867 -2468.87 -1202.42)" stroke="#000">C</text>
  <text fill="#56aaff" x="143.75674" y="166.33614" id="svg_2" font-size="24" font-family="serif" text-anchor="start" xml:space="preserve" font-weight="normal" font-style="normal" transform="matrix(18.2223 0 0 18.1229 -2451.3 -2525.01)" stroke="#56aaff">B</text>
  <path fill="#000000" stroke-width="0" d="m455.715,60.04221l0.56913,0l0.17587,-0.38197l0.17587,0.38197l0.56913,0l-0.46044,0.23607l0.17588,0.38197l-0.46044,-0.23607l-0.46044,0.23607l0.17588,-0.38197l-0.46044,-0.23607z" id="svg_3" stroke="#000"/>
  <path fill="#000000" stroke-width="0" d="m381.83991,-75.74276c-0.34518,0 -0.625,0.22385 -0.625,0.5c0,0.27614 0.27982,0.5 0.625,0.5c0.34519,0 0.625,-0.22386 0.625,-0.5c0,-0.27615 -0.27981,-0.5 -0.625,-0.5zm0.05397,0.77108l0,0.07043l-0.0842,0l0,-0.06963c-0.13817,-0.01514 -0.19872,-0.10596 -0.19872,-0.10596l0.08609,-0.05755c0,0 0.05487,0.07648 0.15421,0.07648c0.05487,0 0.0965,-0.0235 0.0965,-0.06361c0,-0.09388 -0.31603,-0.08249 -0.31603,-0.2566c0,-0.07569 0.07474,-0.13022 0.1779,-0.14308l0,-0.07042l0.0842,0l0,0.07038c0.0719,0.00757 0.15705,0.03785 0.15705,0.10297l0,0.04995l-0.11164,0l0,-0.02422c0,-0.02497 -0.03978,-0.04163 -0.08424,-0.04163c-0.05676,0 -0.09839,0.0227 -0.09839,0.05449c0,0.09612 0.31603,0.07266 0.31603,0.25509c0.00005,0.07496 -0.06996,0.14005 -0.17876,0.15291l0,0z" id="svg_9" stroke="#000"/>
  <path fill="#000000" stroke-width="0" d="m506.21491,-84.69776c-0.34518,0 -0.625,0.22385 -0.625,0.5c0,0.27614 0.27982,0.5 0.625,0.5c0.34519,0 0.625,-0.22386 0.625,-0.5c0,-0.27615 -0.27981,-0.5 -0.625,-0.5zm0.05397,0.77108l0,0.07043l-0.0842,0l0,-0.06963c-0.13817,-0.01514 -0.19872,-0.10596 -0.19872,-0.10596l0.08609,-0.05755c0,0 0.05487,0.07648 0.15421,0.07648c0.05487,0 0.0965,-0.0235 0.0965,-0.06361c0,-0.09388 -0.31603,-0.08249 -0.31603,-0.2566c0,-0.07569 0.07474,-0.13022 0.1779,-0.14308l0,-0.07042l0.0842,0l0,0.07038c0.0719,0.00757 0.15705,0.03785 0.15705,0.10297l0,0.04995l-0.11164,0l0,-0.02422c0,-0.02497 -0.03978,-0.04163 -0.08424,-0.04163c-0.05676,0 -0.09839,0.0227 -0.09839,0.05449c0,0.09612 0.31603,0.07266 0.31603,0.25509c0.00005,0.07496 -0.06996,0.14005 -0.17876,0.15291l0,0z" id="svg_10" stroke="#000"/>
  <path fill="#000000" stroke-width="0" d="m655.8499,47.38723c-1.65687,0 -3,6.93941 -3,15.5c0,8.5604 1.34313,15.5 3,15.5c1.65689,0 3,-6.9396 3,-15.5c0,-8.56058 -1.34311,-15.5 -3,-15.5zm0.25906,23.90357l0,2.18321l-0.40415,0l0,-2.15862c-0.66321,-0.46926 -0.95384,-3.2847 -0.95384,-3.2847l0.41325,-1.78412c0,0 0.26339,2.37076 0.7402,2.37076c0.26336,0 0.46319,-0.7284 0.46319,-1.97206c0,-2.91021 -1.51693,-2.55731 -1.51693,-7.95464c0,-2.34636 0.35874,-4.03671 0.85392,-4.43541l0,-2.183l0.40417,0l0,2.18179c0.34512,0.23473 0.75382,1.17327 0.75382,3.19195l0,1.54856l-0.53587,0l0,-0.75077c0,-0.7742 -0.19093,-1.29047 -0.40435,-1.29047c-0.27246,0 -0.47228,0.70383 -0.47228,1.68934c0,2.9796 1.51693,2.25239 1.51693,7.90787c0.00022,2.32376 -0.33583,4.34161 -0.85805,4.74031l0,0l-0.00001,0z" id="svg_12" stroke="#000"/>
  <path fill="#000000" stroke-width="0" d="m641.79412,217.78224c-26.57896,0 -48.125,0.22385 -48.125,0.5c0,0.27614 21.54605,0.5 48.125,0.5c26.57927,0 48.125,-0.22386 48.125,-0.5c0,-0.27615 -21.54574,-0.5 -48.125,-0.5zm4.15567,0.77108l0,0.07043l-6.48331,0l0,-0.06963c-10.63898,-0.01514 -15.30114,-0.10596 -15.30114,-0.10596l6.62916,-0.05755c0,0 4.22515,0.07648 11.87404,0.07648c4.22481,0 7.43027,-0.0235 7.43027,-0.06361c0,-0.09388 -24.33405,-0.08249 -24.33405,-0.2566c0,-0.07569 5.75479,-0.13022 13.69827,-0.14308l0,-0.07042l6.48358,0l0,0.07038c5.5363,0.00757 12.09251,0.03785 12.09251,0.10297l0,0.04995l-8.59618,0l0,-0.02422c0,-0.02497 -3.06277,-0.04163 -6.48643,-0.04163c-4.37072,0 -7.57619,0.0227 -7.57619,0.05449c0,0.09612 24.33404,0.07266 24.33404,0.25509c0.00348,0.07496 -5.3872,0.14005 -13.76457,0.15291l0,0z" id="svg_13" stroke="#000"/>
 </g>

</svg>